<svg id="be150d09-a984-497b-8f25-a6ebc443268a" data-name="Ebene 1" xmlns="http://www.w3.org/2000/svg" viewBox="0 0 4651.3 3022.6">
  <title>pistol</title>
  <path d="M4708.5,1981.3c24.6-1.5,53.5-1.5,72.1-14.3,21.2-14.5,47.2-44.2,44.9-64.4s-34.6-42.5-58.5-52.2c-34.9-14.1-77-11.5-110.8-27.2-129.4-60-141.7-203.3-209.4-307.3-37-57,15.9-105,32.3-157.3,12.3-39,14-92.4-3.8-126.9-23.7-46-75-28.5-115.5-9.9-55.7,25.6-96.5,12-121-44-33.9-77.3-92.2-105.9-174.4-93-35.9,5.7-62.1-2.9-80.1-42.7-23.7-52.5-70.4-53.8-94.3-2.2-19.6,42.2-47,46-85.8,45.8q-476.2-1.5-952.6-.1c-22.1,0-56.6-2.6-64.1,9.4-27.1,43.2-66,32.4-102.6,32.4q-959.2.6-1918.7-.3c-42.4,0-97.5,21.8-112.3-49-1.4-6.8-24-8.3-36-13.9-15.2-7.1-39.1-12.7-43-24.4-23.2-69.7-74.1-54.9-114.8-32.4-47.4,26.2-86.5,67.4-130.3,100.4-12.6,9.5-29,18.1-44.3,19.3-84.5,6.5-98.6,19.2-106.9,103.5-15.9,161.5,8.6,201.4,150.6,213.3,0,112.1-1.9,222.8.6,333.3,2,88.6,28,111.6,116.1,112.3,61.2.5,122.5-1,183.7.9,16.2.5,44.6,7.5,46.2,15.6,12.5,64.1,60.8,49.8,101.6,49.8,306.2.5,612.4-1.1,918.5.8,217.7,1.3,369.3,106.4,423.5,303.7,21.2,76.9,16.5,161.2,20,242.3,2,46.6,10.1,87.1,59.4,103.4,188.9,62.5,375.7,140.7,580,126.2,105.3-7.5,210-28.7,313.9-49.2,152.8-30,245.5,23.1,287.8,172.7,31.3,111.1,63.5,222.1,90.9,334.2,47.3,194.2,83.6,388.6,58.7,591.8-7.4,60.4,27.4,126.9,47.3,189.1,4.2,13.1,27.3,24.9,43.6,28.3,35.1,7.4,71.6,13.4,107.2,12,215.2-8.2,430.3-20.1,645.6-27.5,52-1.7,88.2-11.2,81.6-79.8,12.4,10.5,18.5,13.6,21.6,18.6,56.6,88.9,123.9,91.3,185.2,8.3,13.6-18.4,34.4-40.3,54.4-43.2,48.4-7.2,54.7-39.2,61.3-76.4,33.5-188.6,2.1-365.9-66.1-545-110.3-289.6-213-582.8-302.1-879.4C4342.7,2163.8,4477.3,1995.4,4708.5,1981.3ZM3170.6,2540.9c-108.8,100-248.5,127.1-387.1,117.3-133.6-9.4-270.2-34.2-396.2-78.8-148.6-52.5-175.9-165.5-158.3-344.5,10-102.2,117.9-181.4,250.6-190.2,85.8-5.6,172.3-.5,258.4-2.8,46.5-1.2,49.2,29.9,53.4,62.1,24.8,191.8-43.3,316-219.3,400-9.6,4.6-18.4,10.9-40.7,24.2,116.7,7.4,252.9-85.2,305.4-192.3,32.4-66.1,66.9-129.5,64.6-207.8-1.3-43.7,63.9-84.5,114.5-81.4,122.4,7.7,220.6,73.7,251.7,175.1C3306.6,2348.8,3263.7,2455.3,3170.6,2540.9ZM4524.8,3908.5h83.5s10.8,43.7-43.1,43.1C4513.6,3951,4524.8,3908.5,4524.8,3908.5ZM4398.7,1330.2a34.1,34.1,0,1,1,34.1-34.1A34.1,34.1,0,0,1,4398.7,1330.2Z" transform="translate(-174.4 -988.7)" fill="#fff"/>
</svg>
